<svg width="63" height="48" viewBox="0 0 63 48" fill="none" xmlns="http://www.w3.org/2000/svg">
<path d="M3.42959 26.3018L62.7 15.1254L58.2151 10.4647C51.7956 3.78135 42.9139 0 33.5924 0H32.5372H30.2508H29.1076C19.874 0 10.9923 3.78135 4.48485 10.4647L0 15.1254L59.2 26.3018C68.4335 26.3018 21.5449 11.344 28.0523 4.66072L31.394 1.23114C29.4593 13.0149 12.6631 31.6578 12.6631 31.6578H31.4819H50.3007C50.3007 31.6578 33.6804 13.2787 31.5698 1.49495L34.6477 4.74867C41.0672 11.344 -5.89187 26.3018 3.42959 26.3018Z" fill="#0ABFBC"/>
<path d="M28.8352 33.1758V34.9568H25.1172V36.8808H27.8992V38.6098H25.1172V42.3018H22.8942V33.1758H28.8352ZM31.0436 42.4058C30.6536 42.4058 30.3329 42.2932 30.0816 42.0678C29.8389 41.8338 29.7176 41.5478 29.7176 41.2098C29.7176 40.8632 29.8389 40.5728 30.0816 40.3388C30.3329 40.1048 30.6536 39.9878 31.0436 39.9878C31.4249 39.9878 31.7369 40.1048 31.9796 40.3388C32.2309 40.5728 32.3566 40.8632 32.3566 41.2098C32.3566 41.5478 32.2309 41.8338 31.9796 42.0678C31.7369 42.2932 31.4249 42.4058 31.0436 42.4058ZM37.0915 33.1758C38.0535 33.1758 38.8942 33.3665 39.6135 33.7478C40.3329 34.1292 40.8875 34.6665 41.2775 35.3598C41.6762 36.0445 41.8755 36.8375 41.8755 37.7388C41.8755 38.6315 41.6762 39.4245 41.2775 40.1178C40.8875 40.8112 40.3285 41.3485 39.6005 41.7298C38.8812 42.1112 38.0448 42.3018 37.0915 42.3018H33.6725V33.1758H37.0915ZM36.9485 40.3778C37.7892 40.3778 38.4435 40.1482 38.9115 39.6888C39.3795 39.2295 39.6135 38.5795 39.6135 37.7388C39.6135 36.8982 39.3795 36.2438 38.9115 35.7758C38.4435 35.3078 37.7892 35.0738 36.9485 35.0738H35.8955V40.3778H36.9485Z" fill="#0ABFBC"/>
</svg>
